<svg width="81" height="80" viewBox="0 0 81 80" fill="none" xmlns="http://www.w3.org/2000/svg">
<g opacity="0.8">
<path d="M57.4332 18.2642C52.5995 13.6509 46.2386 11.3049 39.5627 11.6198C27.014 12.2181 16.9058 22.5311 16.5751 35.1113C16.3705 42.842 19.9131 50.2579 26.0536 54.9656C29.0766 57.2801 30.8715 61.0589 30.8715 65.0739V66.113C29.2341 66.5539 28.006 68.0497 28.006 69.8288V70.3957C28.006 72.537 29.7379 74.2689 31.8792 74.2689H32.5405C32.3988 74.6783 32.3043 75.1034 32.3043 75.56V76.1268C32.3043 78.2681 34.0363 80.0001 36.1776 80.0001H45.3096C47.451 80.0001 49.1829 78.2681 49.1829 76.1268V75.56C49.1829 75.1034 49.0884 74.6783 48.9467 74.2689H49.608C51.7493 74.2689 53.4813 72.537 53.4813 70.3957V69.8288C53.4813 68.0497 52.2689 66.5539 50.6157 66.113V65.0739C50.6157 61.0904 52.5051 57.3116 55.7958 54.6822C61.6056 50.0689 64.9278 43.1727 64.9278 35.7726C64.9278 29.0967 62.2669 22.8775 57.4332 18.2642ZM46.6007 76.1111C46.6007 76.8196 46.0182 77.4021 45.3096 77.4021H36.1776C35.4691 77.4021 34.8865 76.8196 34.8865 76.1111V75.5442C34.8865 74.8357 35.4691 74.2532 36.1776 74.2532H45.3096C46.0339 74.2532 46.6007 74.8357 46.6007 75.5442V76.1111ZM50.8991 69.8288V70.3957C50.8991 71.1042 50.3165 71.6867 49.608 71.6867H45.3096H36.1776H31.8792C31.1707 71.6867 30.5881 71.1042 30.5881 70.3957V69.8288C30.5881 69.1203 31.1707 68.5377 31.8792 68.5377H49.608C50.3165 68.5377 50.8991 69.1203 50.8991 69.8288ZM36.5869 48.7936H33.9418C32.8711 48.7936 32.0052 47.9276 32.0052 46.857V46.1485C32.0052 45.0778 32.8711 44.2118 33.9418 44.2118H34.6503C35.721 44.2118 36.5869 45.0778 36.5869 46.1485V48.7936ZM39.1691 65.9556V51.36H42.3181V65.9556H39.1691ZM54.1898 52.6669C50.285 55.7686 48.0493 60.2874 48.0493 65.0739V65.9556H44.9003V51.36H47.5454C50.0331 51.36 52.0642 49.3289 52.0642 46.8412V46.1327C52.0642 43.645 50.0331 41.6139 47.5454 41.6139H46.8369C44.3492 41.6139 42.3181 43.645 42.3181 46.1327V48.7779H39.1691V46.1327C39.1691 43.645 37.138 41.6139 34.6503 41.6139H33.9418C31.4541 41.6139 29.423 43.645 29.423 46.1327V46.8412C29.423 49.3289 31.4541 51.36 33.9418 51.36H36.5869V65.9556H33.438V65.0739C33.438 60.2559 31.2494 55.7214 27.5966 52.9188C22.1174 48.7149 18.9526 42.0863 19.1258 35.1742C19.425 23.9481 28.4468 14.7373 39.6572 14.202C45.6245 13.9186 51.3085 16.0284 55.6226 20.1378C59.9367 24.263 62.3142 29.8052 62.3142 35.7726C62.3457 42.3854 59.3699 48.5417 54.1898 52.6669ZM44.9003 48.7936V46.1485C44.9003 45.0778 45.7662 44.2118 46.8369 44.2118H47.5454C48.6161 44.2118 49.482 45.0778 49.482 46.1485V46.857C49.482 47.9276 48.6161 48.7936 47.5454 48.7936H44.9003Z" fill="url(#paint0_linear)"/>
<path d="M42.0349 0H39.4527V7.1482H42.0349V0Z" fill="url(#paint1_linear)"/>
<path d="M22.2695 12.2439L17.215 7.18945L15.3891 9.0153L20.4436 14.0698L22.2695 12.2439Z" fill="url(#paint2_linear)"/>
<path d="M59.2206 12.2523L61.0464 14.0781L66.1009 9.02363L64.275 7.19778L59.2206 12.2523Z" fill="url(#paint3_linear)"/>
<path d="M11.0488 31.2539H3.90062V33.8361H11.0488V31.2539Z" fill="url(#paint4_linear)"/>
<path d="M77.5869 31.2539H70.4387V33.8361H77.5869V31.2539Z" fill="url(#paint5_linear)"/>
</g>
<defs>
<linearGradient id="paint0_linear" x1="40.7473" y1="11.5918" x2="40.7473" y2="80.0001" gradientUnits="userSpaceOnUse">
<stop stop-color="#369DE7"/>
<stop offset="1" stop-color="#2792E0"/>
</linearGradient>
<linearGradient id="paint1_linear" x1="40.7438" y1="0" x2="40.7438" y2="7.1482" gradientUnits="userSpaceOnUse">
<stop stop-color="#369DE7"/>
<stop offset="1" stop-color="#2792E0"/>
</linearGradient>
<linearGradient id="paint2_linear" x1="19.7422" y1="9.7167" x2="17.9164" y2="11.5426" gradientUnits="userSpaceOnUse">
<stop stop-color="#369DE7"/>
<stop offset="1" stop-color="#2792E0"/>
</linearGradient>
<linearGradient id="paint3_linear" x1="60.1335" y1="13.1652" x2="65.188" y2="8.11071" gradientUnits="userSpaceOnUse">
<stop stop-color="#369DE7"/>
<stop offset="1" stop-color="#2792E0"/>
</linearGradient>
<linearGradient id="paint4_linear" x1="7.47472" y1="31.2539" x2="7.47472" y2="33.8361" gradientUnits="userSpaceOnUse">
<stop stop-color="#369DE7"/>
<stop offset="1" stop-color="#2792E0"/>
</linearGradient>
<linearGradient id="paint5_linear" x1="74.0128" y1="31.2539" x2="74.0128" y2="33.8361" gradientUnits="userSpaceOnUse">
<stop stop-color="#369DE7"/>
<stop offset="1" stop-color="#2792E0"/>
</linearGradient>
</defs>
</svg>
