<svg width="83" height="82" viewBox="0 0 83 82" fill="none" xmlns="http://www.w3.org/2000/svg">
<g opacity="0.8" clip-path="url(#clip0)">
<path d="M67.2672 44.5332C67.2672 43.9017 67.7791 43.3898 68.4105 43.3898C69.0419 43.3898 69.5538 43.9014 69.5538 44.5332C69.5538 46.6569 67.8257 48.3851 65.7019 48.3851C63.5782 48.3851 61.85 46.6571 61.85 44.5332C61.85 43.9017 62.3619 43.3898 62.9934 43.3898C63.6248 43.3898 64.1367 43.9016 64.1367 44.5332C64.1367 45.3963 64.8389 46.0984 65.7019 46.0984C66.5651 46.0984 67.2672 45.3963 67.2672 44.5332Z" fill="url(#paint0_linear)" stroke="url(#paint1_linear)" stroke-width="0.1"/>
<mask id="path-2-inside-1" fill="white">
<path d="M50.5829 7.11718C53.2039 10.4544 54.392 14.6961 53.8856 18.9093L51.47 18.6189C51.8993 15.0465 50.8919 11.4497 48.6694 8.62001L50.5829 7.11718Z"/>
</mask>
<path d="M50.5829 7.11718C53.2039 10.4544 54.392 14.6961 53.8856 18.9093L51.47 18.6189C51.8993 15.0465 50.8919 11.4497 48.6694 8.62001L50.5829 7.11718Z" stroke="url(#paint2_linear)" stroke-width="5" mask="url(#path-2-inside-1)"/>
<path d="M79.6116 43.5354L76.2528 42.4595C75.8226 42.3216 75.4836 41.9782 75.346 41.5408C74.6381 39.2901 73.5698 37.1772 72.1709 35.2605C71.5333 34.3868 70.8243 33.5526 70.0498 32.7583C70.5453 30.5845 70.8147 28.1244 70.7798 25.9989C70.7298 22.9584 70.1222 21.175 68.9223 20.5466C68.276 20.2077 66.3093 19.1782 55.6642 24.0511C55.4121 24.1664 55.1767 24.3085 54.9587 24.4712C54.2411 24.2784 53.5075 24.1 52.7696 23.9398C52.6807 23.9204 52.5891 23.9033 52.4995 23.8844C53.3621 22 53.8658 19.9534 53.9605 17.8406C53.9899 17.182 53.4802 16.6244 52.8216 16.595C52.1648 16.5624 51.6054 17.0752 51.5761 17.7338C51.4206 21.2077 49.9795 24.4763 47.5185 26.9375C46.0481 28.4079 44.3264 29.4759 42.4915 30.1486C39.3094 29.7021 36.0681 29.7021 32.886 30.1486C31.0509 29.4759 29.3294 28.4079 27.859 26.9375C25.2334 24.3119 23.7874 20.8209 23.7874 17.1077C23.7874 13.3943 25.2334 9.90356 27.859 7.27796C30.4846 4.6522 33.9757 3.20614 37.6888 3.20614C41.4018 3.20614 44.8929 4.6522 47.5185 7.27796C48.5736 8.33307 49.4455 9.53712 50.11 10.8563C50.4064 11.4451 51.1241 11.6821 51.7127 11.3855C52.3014 11.0892 52.5383 10.3715 52.2418 9.78296C51.463 8.23601 50.4417 6.82552 49.2064 5.59007C46.1299 2.51363 42.0396 0.819336 37.6889 0.819336C33.3383 0.819336 29.2479 2.51363 26.1714 5.59007C23.095 8.66667 21.4007 12.7569 21.4007 17.1075C21.4007 21.4582 23.095 25.5486 26.1714 28.625C27.0589 29.5125 28.0243 30.2756 29.0454 30.9149C28.3034 31.1078 27.568 31.3241 26.8398 31.5676C26.2147 31.7766 25.8774 32.4526 26.0864 33.0778C26.2952 33.7029 26.9716 34.0402 27.5965 33.8314C34.1046 31.6557 41.2732 31.6557 47.7813 33.8314C47.9069 33.8733 48.0344 33.8932 48.1598 33.8932C48.659 33.8932 49.1244 33.5774 49.2914 33.0778C49.5004 32.4528 49.1632 31.7766 48.5381 31.5676C47.8098 31.3241 47.0734 31.1074 46.3314 30.9148C47.3527 30.2754 48.319 29.5125 49.2064 28.625C49.9915 27.8399 50.6845 26.9826 51.2862 26.0715C51.6151 26.1354 51.9417 26.2023 52.2635 26.2722C52.692 26.3652 53.1187 26.4652 53.5415 26.5701C53.5282 26.6219 53.5146 26.6737 53.5035 26.7264C52.9215 29.4883 52.9593 31.931 53.6158 33.9863C54.2058 35.8337 55.0833 37.1444 56.7805 38.4349C58.6962 39.8916 60.7083 40.299 62.6544 40.299C64.119 40.299 65.4693 39.9803 66.461 39.4186C67.5827 38.7833 68.5225 37.4445 69.2664 35.4345C69.6103 35.8359 69.9362 36.247 70.2434 36.6679C71.4889 38.3742 72.4398 40.2548 73.0695 42.257C73.4393 43.4331 74.3573 44.3585 75.525 44.7327L78.8838 45.8087C79.7652 46.091 80.3573 46.9022 80.3573 47.8276V53.397C80.3573 54.3224 79.7652 55.1336 78.8838 55.416L73.4723 57.1493C72.6065 57.4269 71.8738 58.0219 71.4092 58.8249C69.2831 62.4992 65.9405 65.5398 61.4736 67.8622C60.9575 68.1308 60.6001 68.6111 60.4924 69.1803L58.7592 78.3577C58.7113 78.6106 58.4898 78.794 58.2325 78.794H52.5971C52.3397 78.794 52.1182 78.6104 52.0703 78.3577L51.1103 73.2857C50.9213 72.2878 49.9854 71.6249 48.978 71.7775C46.5505 72.1446 44.0492 72.3305 41.5439 72.3305C39.68 72.3305 37.8399 72.2266 36.0745 72.0214C35.0984 71.9092 34.189 72.5746 34.0066 73.5384L33.0944 78.3577C33.0465 78.6106 32.825 78.794 32.5676 78.794H26.9322C26.6748 78.794 26.4533 78.6104 26.4048 78.3539L24.736 69.6859C24.6285 69.1274 24.2778 68.6526 23.7731 68.383C16.1586 64.3181 12.1339 57.5268 12.1339 48.7439C12.1339 44.3062 13.1048 40.3823 15.0194 37.0805C16.8061 33.9992 19.4157 31.4516 22.7756 29.5081C23.3461 29.178 23.541 28.4481 23.2111 27.8774C22.8812 27.3069 22.1512 27.1123 21.5806 27.4419C15.0656 31.2107 11.1361 37.0251 10.0543 44.4099C9.93944 44.3995 9.82445 44.3894 9.70994 44.3775C9.73076 43.5807 9.58662 42.7768 9.27271 41.9965C8.58036 40.2754 7.15817 39.0333 5.64934 38.8319C4.46034 38.6727 3.32883 39.1776 2.54359 40.215C1.40504 41.7196 1.59066 42.9102 1.94669 43.644C2.54775 44.8825 4.09278 45.7585 6.65672 46.3093C6.58625 46.4149 6.50874 46.5209 6.42385 46.6274C4.90894 48.5273 3.12415 48.9474 1.96526 48.987C1.28684 49.0099 0.743591 49.5546 0.743591 50.2335V50.2392C0.743591 50.9088 1.27195 51.455 1.94092 51.4856C2.0266 51.4896 2.11613 51.4917 2.20934 51.4917C3.67573 51.4917 6.02923 50.9508 8.29031 48.1156C8.6473 47.6681 8.93815 47.1959 9.16172 46.7081C9.3869 46.7336 9.60328 46.7554 9.81052 46.7746L9.81068 46.7733C9.77 47.42 9.74742 48.0762 9.74742 48.7439C9.74742 53.7132 10.9321 58.1439 13.2683 61.9135C15.4224 65.3889 18.5065 68.2346 22.438 70.3746C22.438 70.3746 23.7995 77.4227 24.0604 78.8013C24.3213 80.18 25.5291 81.1806 26.9322 81.1806H32.5676C33.9707 81.1806 35.1785 80.18 35.4394 78.8013L36.2642 74.4438C37.9772 74.6253 41.5437 74.7172 41.5437 74.7172C41.5437 74.7172 46.4608 74.5458 48.8555 74.2076L49.725 78.8017C49.986 80.1803 51.1938 81.1808 52.5967 81.1808H58.2322C59.6353 81.1808 60.843 80.1801 61.1041 78.801L62.7916 69.8657C67.5592 67.3447 71.1528 64.033 73.4747 60.0201C73.6421 59.7309 73.8998 59.5187 74.2002 59.4224L79.6116 57.6891C81.4849 57.0886 82.7436 55.3639 82.7436 53.3967V47.8273C82.7436 45.8602 81.4849 44.1355 79.6116 43.5354ZM68.2139 29.3525C67.7546 33.2804 66.5225 36.6405 65.2845 37.3417C63.8773 38.1388 60.6286 38.2927 58.1894 36.5084C55.7473 34.722 54.9345 31.5096 55.8386 27.2184C55.9294 26.7874 56.0779 26.4653 56.4999 26.2722C62.4744 23.5373 66.0766 22.5919 67.3563 22.5919C67.5494 22.5919 67.6932 22.6123 67.789 22.6498C68.1734 23.0594 68.6776 25.3883 68.2139 29.3525ZM4.09422 42.6019C3.97074 42.3472 4.26222 41.8996 4.44704 41.6552C4.73997 41.2682 5.00983 41.1891 5.21371 41.1891C5.25679 41.1891 5.29699 41.1926 5.33383 41.1976C5.88252 41.2708 6.65127 41.8746 7.05855 42.8869C7.15449 43.1253 7.27909 43.52 7.30824 44.0124C5.65622 43.6701 4.37273 43.1767 4.09422 42.6019Z" fill="url(#paint3_linear)" stroke="url(#paint4_linear)" stroke-width="0.1"/>
<path d="M38.7979 15.7394V15.7743L38.8306 15.7863C39.7456 16.1228 40.6943 16.5198 41.4147 17.1857C42.1327 17.8492 42.6268 18.7825 42.6268 20.1994C42.6268 21.4828 42.241 22.4744 41.5778 23.1842C40.9143 23.8945 39.9686 24.3271 38.841 24.4837L38.7979 24.4897V24.5333V25.2485C38.7979 25.3535 38.7316 25.4613 38.6206 25.5452C38.5103 25.6285 38.363 25.6824 38.2167 25.6824C37.8775 25.6824 37.6565 25.4649 37.6565 25.2485V24.5964V24.5472L37.6073 24.5464C36.3116 24.5254 35.2268 24.1649 34.4672 23.6837C34.0873 23.443 33.7898 23.1728 33.5878 22.9009C33.3854 22.6287 33.2807 22.3576 33.2807 22.1139C33.2807 21.8742 33.3864 21.5846 33.5575 21.3548C33.729 21.1243 33.9579 20.9647 34.1984 20.9647C34.3543 20.9647 34.5086 21.0474 34.6917 21.1872C34.782 21.2561 34.8771 21.3369 34.9814 21.4257L34.9836 21.4276C35.0885 21.5168 35.2021 21.6134 35.3273 21.7114C35.8294 22.1046 36.517 22.5203 37.6026 22.6055L37.6565 22.6097V22.5557V17.6118V17.5765L37.6233 17.5647C36.6749 17.2275 35.684 16.8724 34.9292 16.2685C34.1778 15.6674 33.6594 14.8189 33.6594 13.4884C33.6594 12.1773 34.1528 11.266 34.8904 10.6553C35.6298 10.043 36.6185 9.72963 37.6118 9.62504L37.6565 9.62032V9.57531V8.96528C37.6565 8.74884 37.8774 8.53145 38.2167 8.53145C38.3629 8.53145 38.5102 8.58531 38.6205 8.66861C38.7316 8.7525 38.7979 8.8603 38.7979 8.96528V9.53351V9.58206L38.8464 9.58349C39.5583 9.60445 40.4153 9.72491 41.0926 9.96717C41.4314 10.0884 41.722 10.2389 41.9271 10.4201C42.1315 10.6006 42.2481 10.8089 42.2481 11.0483C42.2481 11.2387 42.1772 11.5295 42.0293 11.7717C41.8816 12.0135 41.6638 12.1974 41.3724 12.1974C41.257 12.1974 41.136 12.1588 40.9925 12.0949C40.9127 12.0593 40.8301 12.018 40.7396 11.9726C40.6644 11.935 40.5837 11.8946 40.4945 11.8524C40.1068 11.6692 39.5957 11.4723 38.8515 11.4191L38.7979 11.4153V11.469V15.7394ZM37.7151 15.3866L37.7827 15.4121V15.3398V11.5111V11.4545L37.7265 11.4615C37.1327 11.5357 36.6175 11.706 36.2499 12.0006C35.8801 12.297 35.6632 12.7165 35.6632 13.2783C35.6632 13.8931 35.8962 14.317 36.2723 14.6389C36.6453 14.9582 37.158 15.1764 37.7151 15.3866ZM38.6715 22.5135V22.5736L38.7306 22.5627C39.3058 22.4562 39.7796 22.2316 40.1098 21.8771C40.4405 21.5219 40.6228 21.0409 40.6228 20.4307C40.6228 19.7564 40.4135 19.2656 40.0707 18.8877C39.7295 18.5116 39.2587 18.2504 38.7412 18.0287L38.6715 17.9988V18.0746V22.5135Z" fill="url(#paint5_linear)" stroke="url(#paint6_linear)" stroke-width="0.1"/>
</g>
<defs>
<linearGradient id="paint0_linear" x1="65.7019" y1="43.3398" x2="65.7019" y2="48.4351" gradientUnits="userSpaceOnUse">
<stop stop-color="#369DE7"/>
<stop offset="1" stop-color="#2792E0"/>
</linearGradient>
<linearGradient id="paint1_linear" x1="65.7019" y1="43.3398" x2="65.7019" y2="48.4351" gradientUnits="userSpaceOnUse">
<stop stop-color="#369DE7"/>
<stop offset="1" stop-color="#2792E0"/>
</linearGradient>
<linearGradient id="paint2_linear" x1="37.9999" y1="1" x2="37.9999" y2="33" gradientUnits="userSpaceOnUse">
<stop stop-color="#369DE7"/>
<stop offset="1" stop-color="#2792E0"/>
</linearGradient>
<linearGradient id="paint3_linear" x1="41.7436" y1="0.819336" x2="41.7436" y2="81.1808" gradientUnits="userSpaceOnUse">
<stop stop-color="#369DE7"/>
<stop offset="1" stop-color="#2792E0"/>
</linearGradient>
<linearGradient id="paint4_linear" x1="41.7436" y1="0.819336" x2="41.7436" y2="81.1808" gradientUnits="userSpaceOnUse">
<stop stop-color="#369DE7"/>
<stop offset="1" stop-color="#2792E0"/>
</linearGradient>
<linearGradient id="paint5_linear" x1="37.9538" y1="8.48145" x2="37.9538" y2="25.7324" gradientUnits="userSpaceOnUse">
<stop stop-color="#369DE7"/>
<stop offset="1" stop-color="#2792E0"/>
</linearGradient>
<linearGradient id="paint6_linear" x1="37.9538" y1="8.48145" x2="37.9538" y2="25.7324" gradientUnits="userSpaceOnUse">
<stop stop-color="#369DE7"/>
<stop offset="1" stop-color="#2792E0"/>
</linearGradient>
<clipPath id="clip0">
<rect width="82" height="82" fill="white" transform="translate(0.743591)"/>
</clipPath>
</defs>
</svg>
