<svg width="81" height="80" viewBox="0 0 81 80" fill="none" xmlns="http://www.w3.org/2000/svg">
<g opacity="0.8" clip-path="url(#clip0)">
<path d="M12.1144 63.116C12.1144 63.0339 13.1509 55.3333 16.5523 52.8479C17.4483 52.2366 18.399 51.711 19.3954 51.2858V60.8697C17.7804 61.4609 15.722 63.116 15.722 66.6434V78.9152C15.722 79.5174 16.2074 79.9991 16.806 79.9991H64.5866C65.1833 79.9991 65.6669 79.5174 65.6669 78.9152V66.6434C65.6669 63.1325 63.6121 61.4774 61.9935 60.8697V51.3351C62.9589 51.753 63.8822 52.2639 64.7526 52.857C68.1504 55.3332 69.1851 63.043 69.1906 63.1233L71.2927 79.0028L73.4569 78.7217L71.3584 62.8405C71.3128 62.4901 70.2033 54.1344 66.0446 51.1034C64.6486 50.1764 63.1541 49.4045 61.5903 48.8005C61.499 48.7311 61.3968 48.6727 61.2855 48.6344L60.3822 48.3169C58.9991 47.7822 57.5392 47.2786 56.1469 46.8315L55.3531 46.5505C55.271 46.5158 55.1852 46.4903 55.094 46.4757C52.7673 45.7549 50.7254 45.1965 49.6342 44.9118V42.483C52.9407 40.1235 54.9005 36.317 54.906 32.255V30.3353C55.2746 30.4813 55.6706 30.5561 56.0666 30.5579C57.9023 30.5561 59.3914 29.0689 59.395 27.2313V24.2368C59.3914 23.1894 58.8987 22.2076 58.0666 21.5817C58.3677 19.7478 58.5064 17.8919 58.4772 16.0343C58.4772 3.7625 49.9389 0.875665 44.8587 0.218736C43.4627 0.0636277 42.0576 -0.00571497 40.6561 -0.000240539C39.0412 -0.0111894 37.4244 0.100124 35.8259 0.326399C31.0029 1.08552 22.9118 4.13841 22.9118 16.0434C22.888 17.8992 23.0286 19.7496 23.3315 21.5817C22.4939 22.2076 22.0048 23.1894 22.003 24.2368V27.2313C21.9866 29.0707 23.4665 30.5798 25.3077 30.5944C25.3223 30.5944 25.3351 30.5944 25.3534 30.5944C25.7512 30.5908 26.1435 30.5159 26.5139 30.3718V32.2842C26.5176 36.3079 28.4446 40.0834 31.6964 42.4465V44.9611C27.7566 45.9665 23.8807 47.1946 20.0833 48.6435H20.0468C18.3717 49.2694 16.7713 50.0869 15.2841 51.076C11.1254 54.107 10.0122 62.4573 9.96663 62.8058L7.8681 78.6852L10.036 78.9681L12.1144 63.116ZM57.2162 27.2313C57.2162 27.8736 56.6961 28.3937 56.0538 28.3937C55.4115 28.3937 54.8914 27.8736 54.8914 27.2313V26.9338C55.9407 26.3663 56.7637 25.4521 57.2162 24.3444V27.2313ZM36.1854 2.44135C37.6671 2.24244 39.1635 2.14938 40.6561 2.16945C41.9536 2.16033 43.2565 2.23149 44.5466 2.3793C49.8951 3.03441 56.2691 5.94497 56.2691 16.0434C56.291 17.5288 56.2162 19.0124 56.0392 20.4868C40.9572 14.2168 29.2365 18.5179 25.3534 20.3719C25.1763 18.9376 25.0942 17.4905 25.107 16.0434C25.107 6.25883 31.1325 3.25886 36.1854 2.44135ZM26.5139 27.2313C26.5139 27.8736 25.9957 28.3937 25.3534 28.3937C24.711 28.3937 24.1891 27.8736 24.1891 27.2313V24.3444C24.6435 25.4485 25.4647 26.359 26.5139 26.9302V27.2313ZM25.7913 22.5452C28.7238 21.1018 40.5102 16.215 55.5629 22.6182C54.9644 24.5178 54.1195 24.9868 53.4827 25.1747C52.2181 25.5506 50.1177 25.0288 47.8897 24.4521C45.5503 23.7094 43.1233 23.2824 40.6726 23.1875C38.2182 23.2824 35.7894 23.7094 33.4518 24.4521C31.2183 25.0671 29.1197 25.5853 27.857 25.1747C27.273 24.9868 26.4063 24.4941 25.8059 22.5452H25.7913ZM28.68 32.255V27.4557H28.9811C30.7128 27.3499 32.4208 27.0251 34.0704 26.4868C36.22 25.797 38.4536 25.3955 40.7072 25.2952C42.959 25.3955 45.1926 25.797 47.3404 26.4868C48.99 27.0251 50.698 27.3499 52.4298 27.4557H52.7309V32.2477C52.7254 38.014 48.0521 42.6837 42.2875 42.6855H39.1178C33.3569 42.6782 28.6873 38.0122 28.68 32.2477V32.255ZM47.4462 43.7385V46.4998L48.9517 46.9976L47.4462 43.733L33.8551 43.691C35.5029 44.4556 37.2949 44.8498 39.1105 44.8498H42.2802C44.0649 44.8498 45.824 44.472 47.4462 43.733V43.7385ZM27.5084 48.3771C26.576 48.6216 29.627 47.7311 27.5084 48.3771C28.4409 48.1326 33.8551 46.4998 33.8551 46.4998V43.691L47.4462 43.733L48.9517 46.9976C49.8951 47.2512 51.7418 47.7183 53.8933 48.4026V61.0157H27.5084V48.3771ZM20.6326 62.8113C21.1691 62.7401 21.5705 62.2803 21.5687 61.7365V50.388C22.7877 49.9191 24.0815 49.4647 25.3442 49.0541V62.0978C25.3442 62.6945 25.8278 63.1817 26.43 63.1817H40.7036H54.9772C55.5739 63.1817 56.0575 62.6945 56.0575 62.0978V49.1052L59.833 50.4245V61.7091C59.833 62.2493 60.2381 62.7127 60.7746 62.7839C60.8822 62.7839 63.5118 63.1854 63.5118 66.6397V77.7984H17.8954V66.6306C17.8954 63.2967 20.3552 62.8186 20.6326 62.7839V62.8113Z" fill="url(#paint0_linear)"/>
<path d="M33.8551 46.4998V43.691M33.8551 46.4998C33.8551 46.4998 28.4409 48.1326 27.5084 48.3771M33.8551 46.4998L27.5084 48.3771M33.8551 43.691C35.5029 44.4556 37.2949 44.8498 39.1105 44.8498H42.2802C44.0649 44.8498 45.824 44.472 47.4462 43.733M33.8551 43.691L47.4462 43.733M47.4462 43.733V43.7385V46.4998L48.9517 46.9976M47.4462 43.733L48.9517 46.9976M27.5084 48.3771C29.627 47.7311 26.576 48.6216 27.5084 48.3771ZM27.5084 48.3771V61.0157H53.8933V48.4026C51.7418 47.7183 49.8951 47.2512 48.9517 46.9976M12.1144 63.116C12.1144 63.0339 13.1509 55.3333 16.5523 52.8479C17.4483 52.2366 18.399 51.711 19.3954 51.2858V60.8697C17.7804 61.4609 15.722 63.116 15.722 66.6434V78.9152C15.722 79.5174 16.2074 79.9991 16.806 79.9991H64.5866C65.1833 79.9991 65.6669 79.5174 65.6669 78.9152V66.6434C65.6669 63.1325 63.6121 61.4774 61.9935 60.8697V51.3351C62.9589 51.753 63.8822 52.2639 64.7526 52.857C68.1504 55.3332 69.1851 63.043 69.1906 63.1233L71.2927 79.0028L73.4569 78.7217L71.3584 62.8405C71.3128 62.4901 70.2033 54.1344 66.0446 51.1034C64.6486 50.1764 63.1541 49.4045 61.5903 48.8005C61.499 48.7311 61.3968 48.6727 61.2855 48.6344L60.3822 48.3169C58.999 47.7822 57.5392 47.2786 56.1469 46.8315L55.3531 46.5505C55.271 46.5158 55.1852 46.4903 55.094 46.4757C52.7673 45.7549 50.7254 45.1965 49.6342 44.9118V42.483C52.9407 40.1235 54.9005 36.317 54.906 32.255V30.3353C55.2746 30.4813 55.6706 30.5561 56.0666 30.5579C57.9023 30.5561 59.3914 29.0689 59.395 27.2313V24.2368C59.3914 23.1894 58.8987 22.2076 58.0666 21.5817C58.3677 19.7478 58.5064 17.8919 58.4772 16.0343C58.4772 3.7625 49.9389 0.875665 44.8587 0.218736C43.4627 0.0636277 42.0576 -0.00571497 40.6561 -0.000240539C39.0412 -0.0111894 37.4244 0.100124 35.8259 0.326399C31.0029 1.08552 22.9118 4.13841 22.9118 16.0434C22.888 17.8992 23.0286 19.7496 23.3315 21.5817C22.4939 22.2076 22.0048 23.1894 22.003 24.2368V27.2313C21.9866 29.0707 23.4665 30.5798 25.3077 30.5944C25.3223 30.5944 25.3351 30.5944 25.3534 30.5944C25.7512 30.5908 26.1435 30.5159 26.5139 30.3718V32.2842C26.5176 36.3079 28.4446 40.0834 31.6964 42.4465V44.9611C27.7566 45.9665 23.8807 47.1946 20.0833 48.6435H20.0468C18.3717 49.2694 16.7713 50.0869 15.2841 51.076C11.1254 54.107 10.0122 62.4573 9.96663 62.8058L7.8681 78.6852L10.036 78.9681L12.1144 63.116ZM57.2162 27.2313C57.2162 27.8736 56.6961 28.3937 56.0538 28.3937C55.4115 28.3937 54.8914 27.8736 54.8914 27.2313V26.9338C55.9407 26.3663 56.7637 25.4521 57.2162 24.3444V27.2313ZM36.1854 2.44135C37.6671 2.24244 39.1635 2.14938 40.6561 2.16945C41.9536 2.16033 43.2565 2.23149 44.5466 2.3793C49.8951 3.03441 56.2691 5.94497 56.2691 16.0434C56.291 17.5288 56.2162 19.0124 56.0392 20.4868C40.9572 14.2168 29.2365 18.5179 25.3534 20.3719C25.1763 18.9376 25.0942 17.4905 25.107 16.0434C25.107 6.25883 31.1325 3.25886 36.1854 2.44135ZM26.5139 27.2313C26.5139 27.8736 25.9957 28.3937 25.3534 28.3937C24.711 28.3937 24.1891 27.8736 24.1891 27.2313V24.3444C24.6435 25.4485 25.4647 26.359 26.5139 26.9302V27.2313ZM25.7913 22.5452C28.7238 21.1018 40.5102 16.215 55.5629 22.6182C54.9644 24.5178 54.1195 24.9868 53.4827 25.1747C52.2181 25.5506 50.1177 25.0288 47.8897 24.4521C45.5503 23.7094 43.1233 23.2824 40.6726 23.1875C38.2182 23.2824 35.7894 23.7094 33.4518 24.4521C31.2183 25.0671 29.1197 25.5853 27.857 25.1747C27.273 24.9868 26.4063 24.4941 25.8059 22.5452H25.7913ZM28.68 32.255V27.4557H28.9811C30.7128 27.3499 32.4208 27.0251 34.0704 26.4868C36.22 25.797 38.4536 25.3955 40.7072 25.2952C42.959 25.3955 45.1926 25.797 47.3404 26.4868C48.99 27.0251 50.698 27.3499 52.4298 27.4557H52.7309V32.2477C52.7254 38.014 48.0521 42.6837 42.2875 42.6855H39.1178C33.3569 42.6782 28.6873 38.0122 28.68 32.2477V32.255ZM20.6326 62.8113C21.1691 62.7401 21.5705 62.2803 21.5687 61.7365V50.388C22.7877 49.9191 24.0815 49.4647 25.3442 49.0541V62.0978C25.3442 62.6945 25.8278 63.1817 26.43 63.1817H40.7036H54.9772C55.5739 63.1817 56.0575 62.6945 56.0575 62.0978V49.1052L59.833 50.4245V61.7091C59.833 62.2493 60.2381 62.7127 60.7746 62.7839C60.8822 62.7839 63.5118 63.1854 63.5118 66.6397V77.7984H17.8954V66.6306C17.8954 63.2967 20.3552 62.8186 20.6326 62.7839V62.8113Z" stroke="url(#paint1_linear)" stroke-width="0.48"/>
</g>
<defs>
<linearGradient id="paint0_linear" x1="40.6625" y1="-0.000976563" x2="40.6625" y2="79.9991" gradientUnits="userSpaceOnUse">
<stop stop-color="#369DE7"/>
<stop offset="1" stop-color="#2792E0"/>
</linearGradient>
<linearGradient id="paint1_linear" x1="40.6625" y1="-0.000976563" x2="40.6625" y2="79.9991" gradientUnits="userSpaceOnUse">
<stop stop-color="#369DE7"/>
<stop offset="1" stop-color="#2792E0"/>
</linearGradient>
<clipPath id="clip0">
<rect width="80" height="80" fill="white" transform="translate(0.743591)"/>
</clipPath>
</defs>
</svg>
