<svg width="301" height="30" viewBox="0 0 301 30" fill="none" xmlns="http://www.w3.org/2000/svg">
<path opacity="0.5" d="M84.5566 4.88718C86.1502 1.97661 89.3497 0.290553 92.5379 0.165489C96.1717 -0.0110872 99.8098 0.133962 103.449 0.0880885C103.449 2.21213 103.449 4.33567 103.443 6.46484C100.321 6.47022 97.1935 6.45356 94.0662 6.45946C92.6395 6.44331 91.0649 6.82824 90.1846 8.08222C89.2242 9.3631 89.4153 11.0753 89.3948 12.5948C89.4556 15.0064 89.3139 17.4162 89.4509 19.8265C89.5513 21.4444 90.534 23.1112 92.1627 23.4805C94.0054 23.8288 95.8972 23.622 97.7606 23.5374C97.7546 21.7106 97.7546 19.8823 97.7606 18.0566C96.5756 18.0466 95.3914 18.042 94.2069 18.0364C94.2122 16.1788 94.2122 14.3149 94.2122 12.4559C97.4611 12.4507 100.705 12.4507 103.949 12.4507C103.923 17.6609 104.024 22.8716 103.898 28.0771C100.588 30.5648 96.3618 29.774 92.5424 29.8941C88.9945 29.9726 85.5584 27.7288 84.0972 24.4016C82.6792 21.3731 83.1556 17.9369 83.0791 14.6886C83.0687 11.3877 82.8718 7.8431 84.5566 4.88718ZM200.266 4.25648C201.935 1.67447 204.931 0.295932 207.891 0.160873C211.529 -0.0110903 215.177 0.134225 218.827 0.0875825C218.827 2.21162 218.827 4.33515 218.821 6.46432C215.527 6.48456 212.232 6.42255 208.939 6.47893C207.345 6.49508 205.558 7.28108 205.048 8.96201C204.324 11.4825 204.789 14.1471 204.648 16.7388C204.622 18.9828 204.496 21.9177 206.713 23.1773C208.732 24.0412 211.015 23.5789 213.145 23.512C213.129 21.6904 213.134 19.8736 213.139 18.0566C211.955 18.0466 210.77 18.0412 209.586 18.0364C209.591 16.1788 209.591 14.3149 209.591 12.4559C212.84 12.4507 216.084 12.4507 219.327 12.4559C219.348 17.6043 219.307 22.7516 219.353 27.9051C216.114 30.6022 211.808 29.7739 207.972 29.899C204.399 30.0087 200.902 27.7798 199.44 24.4279C197.962 21.3928 198.586 17.9264 198.459 14.6732C198.419 11.1488 198.17 7.28109 200.266 4.25648ZM0.11116 0.472512C2.45417 0.48302 4.79744 0.477894 7.14444 0.477894C8.58752 6.63551 9.90179 12.8252 11.3949 18.9708C12.2451 12.7934 13.3276 6.65011 14.2537 0.481473C16.9107 0.470197 19.5624 0.476091 22.2191 0.481473C23.1853 6.63935 24.1624 12.8026 25.1339 18.9602C26.5204 12.7972 27.9281 6.63397 29.3343 0.476092C31.6778 0.476092 34.0258 0.48148 36.3681 0.470204C33.7667 10.2303 31.1202 19.9802 28.5445 29.7504C26.1409 29.7562 23.7421 29.7616 21.3381 29.745C20.321 23.6289 19.2131 17.5235 18.2508 11.3959C17.2335 17.5235 16.1806 23.6394 15.1235 29.7563H7.93724C5.35927 19.9874 2.71229 10.238 0.11116 0.472512ZM34.0467 29.7581C36.6434 19.992 39.2744 10.238 41.8798 0.477894H49.1064C51.7023 10.2432 54.3388 19.992 56.9297 29.7519C54.7444 29.758 52.5569 29.7519 50.3656 29.7632C49.9306 27.7642 49.5205 25.7655 49.0653 23.7719C46.7133 23.7657 44.3591 23.7719 42.0009 23.7657C41.5758 25.7596 41.1351 27.7483 40.7153 29.7417C38.4953 29.768 36.2687 29.7581 34.0467 29.7581ZM43.2676 18.5666C44.8108 18.5604 46.3553 18.5666 47.8978 18.5807C47.1441 15.0568 46.3483 11.5486 45.5854 8.03531C44.8108 11.5445 44.032 15.0525 43.2676 18.5666ZM60.1799 0.347703C64.7404 0.362055 69.2949 0.310792 73.8543 0.367686C76.5566 0.314893 79.3695 2.33054 79.5272 5.2511C79.5529 7.86387 79.5529 10.4771 79.5222 13.0907C79.4615 15.1622 77.8716 16.7457 76.1365 17.5405C77.7966 21.5699 79.4664 25.5948 81.1313 29.6286H73.885C72.5891 25.9846 71.3655 22.3149 70.0386 18.6863C68.7734 18.6922 67.5137 18.6975 66.2537 18.6975C66.2485 22.3413 66.2644 25.99 66.2432 29.634C64.2241 29.6238 62.205 29.6238 60.1856 29.634C60.1695 19.8675 60.1799 10.1076 60.1799 0.347703ZM66.2527 6.20394C66.2527 8.46253 66.2475 10.7165 66.2582 12.9759C68.0895 12.9292 69.9212 13.0591 71.7487 12.9243C72.913 12.8295 73.5915 11.6166 73.4646 10.4982C73.424 9.12271 73.8795 7.03147 72.3161 6.38103C70.3263 5.9797 68.2721 6.30209 66.2527 6.20394ZM113.483 0.483016C115.887 0.471483 118.29 0.488405 120.699 0.46739C123.331 10.2221 125.953 19.982 128.532 29.7588H121.969C121.538 27.7539 121.129 25.7496 120.658 23.757C118.314 23.7829 115.966 23.7726 113.619 23.7685C113.203 25.7673 112.747 27.755 112.338 29.7596H105.669C108.245 19.9918 110.907 10.2483 113.483 0.483016ZM114.88 18.5715C116.423 18.5666 117.971 18.5666 119.514 18.5666C118.755 15.0469 117.956 11.5389 117.207 8.0207C116.412 11.5333 115.654 15.0525 114.88 18.5715ZM131.286 0.477894C133.876 0.483275 136.467 0.462 139.058 0.498136C140.844 7.61962 142.711 14.7178 144.523 21.8339C146.468 14.7347 148.247 7.59348 150.145 0.481991C152.711 0.476609 155.277 0.47661 157.848 0.47661V29.7568H152.028C152.074 24.1924 151.927 18.6325 151.826 13.072C150.333 18.6004 149.037 24.1914 147.666 29.7568C145.566 29.7509 143.466 29.7824 141.371 29.7199C140.035 24.0153 138.618 18.3306 137.236 12.6409C137.211 18.3465 137.231 24.0448 137.226 29.7563H131.28C131.281 19.9979 131.275 10.238 131.286 0.477894ZM162.787 0.483016C164.846 0.477634 166.91 0.477634 168.98 0.477634V29.7578H162.781C162.783 19.9979 162.783 10.238 162.787 0.483016ZM173.919 0.483016C175.939 0.477634 177.957 0.471483 179.978 0.483016C182.978 6.15678 185.958 11.8362 188.985 17.4935C188.95 11.8206 188.974 6.15191 188.974 0.483016C190.953 0.477634 192.931 0.477634 194.91 0.483016C194.915 10.2378 194.915 19.9977 194.915 29.7527C192.891 29.7581 190.872 29.7581 188.858 29.7527C185.835 23.9995 182.865 18.2229 179.84 12.4756C179.88 18.2378 179.851 23.9951 179.86 29.7583H173.914C173.915 19.9979 173.915 10.238 173.919 0.483016ZM234.262 0.477894C236.276 0.477894 238.296 0.483276 240.309 0.472512C243.387 6.18216 246.357 11.9497 249.434 17.6601C249.459 11.9295 249.434 6.20368 249.444 0.477634C251.382 0.477634 253.32 0.477634 255.258 0.483016C255.264 10.2378 255.264 19.9976 255.264 29.7578C253.229 29.7516 251.195 29.778 249.165 29.7252C246.23 23.9216 243.153 18.1963 240.193 12.4072C240.228 18.185 240.193 23.9674 240.214 29.7506C238.23 29.7619 236.246 29.7565 234.262 29.7565C234.262 19.9979 234.257 10.238 234.262 0.477894ZM259.822 0.483016C265.89 0.477634 271.963 0.477634 278.035 0.477634C278.03 2.38307 278.03 4.28671 278.041 6.1924C274.032 6.21777 270.025 6.1924 266.017 6.20368C266.011 8.02531 266.011 9.84746 266.017 11.6691H276.892C276.897 13.5745 276.897 15.4848 276.892 17.3885C273.268 17.3946 269.645 17.3946 266.022 17.3946C266.011 19.5599 266.011 21.7306 266.022 23.9013H278.03C278.035 25.8534 278.035 27.8049 278.03 29.7578H259.817C259.818 19.9979 259.813 10.238 259.822 0.483016ZM280.946 0.483016C287.484 0.471483 294.017 0.483016 300.556 0.477634V6.20368H293.982C293.972 14.0117 293.982 21.8195 293.972 29.6273H287.783C287.777 21.8244 287.772 14.0212 287.783 6.21727C285.505 6.19702 283.223 6.19702 280.946 6.20317V0.483016ZM223.636 23.7719C225.614 23.7719 227.593 23.7719 229.571 23.7657C229.581 25.7596 229.581 27.7534 229.586 29.747C227.602 29.7627 225.618 29.7586 223.635 29.7586C223.636 27.7591 223.63 25.7655 223.636 23.7719Z" fill="white"/>
</svg>
