<svg width="187" height="31" viewBox="0 0 187 31" fill="none" xmlns="http://www.w3.org/2000/svg">
<path d="M42.7986 2.18931C42.3521 1.00181 41.5025 0.49025 39.9458 0.466941C39.8041 0.462648 32.6048 0.47369 32.6048 0.47369L21.9492 29.4884C21.9492 29.4884 27.1323 29.4884 27.1359 29.4884C27.5831 29.5203 27.999 29.4498 28.3725 29.2817C29.3821 28.8217 29.8765 27.652 30.0207 27.2527C30.0207 27.2631 31.4701 23.2105 31.5701 22.9449C32.3116 22.9449 41.7197 22.9412 42.2907 22.9412C42.514 23.6251 44.4682 29.4743 44.4682 29.4743H51.4878L47.0352 15.3537L42.7986 2.18931ZM33.4133 16.9877C34.1929 14.8544 36.1324 9.45849 36.9605 7.27302C37.6763 9.47689 40.618 16.9154 40.6365 16.9865C39.5722 16.9865 33.8322 16.9877 33.4133 16.9877Z" fill="#B5B5B5"/>
<path d="M93.3126 0.240417H93.3089C85.0056 0.252071 78.9822 6.48525 78.9822 15.0548C78.9822 23.4514 85.1387 29.7864 93.3126 29.7864C101.483 29.7864 107.89 23.3201 107.89 15.0548C107.89 6.74655 101.483 0.240417 93.3126 0.240417ZM93.5212 23.314C89.2888 23.314 85.971 19.6533 85.971 14.9769C85.971 10.3428 89.2164 6.85267 93.5162 6.85267C97.7841 6.85267 100.879 10.2668 100.879 14.9769C100.879 19.7331 97.7142 23.314 93.5212 23.314Z" fill="#B5B5B5"/>
<path d="M126.675 12.4532L126.402 12.3735C126.41 12.3772 123.703 11.554 123.696 11.546L123.291 11.4025C121.08 10.6033 119.509 9.93345 119.509 8.64596C119.509 8.61345 119.509 8.58156 119.509 8.55089C119.729 6.4151 123.697 6.39118 123.735 6.39118C125.923 6.39118 127.605 6.72608 129.735 7.58175L129.78 7.59831L129.872 7.62468C130.364 7.72405 130.794 7.73816 131.143 7.66149L131.733 7.43822C132.579 6.97205 133.421 4.50564 133.744 3.46657L133.849 3.1335L133.588 2.89429C133.486 2.79614 132.865 2.2852 130.608 1.44241C128.313 0.583679 125.062 0.448734 125.062 0.448734L123.458 0.441373C115.081 0.441373 111.883 5.61157 111.781 9.08331C111.713 12.5428 113.682 14.3222 116.658 15.9397C117.902 16.6297 120.177 17.264 121.826 17.7252C121.817 17.7179 123.532 18.2251 123.532 18.2251C126.653 19.2059 127.845 20.2941 127.624 21.9827C127.525 22.5409 126.47 23.4647 124.074 23.4647C122.251 23.4647 120.604 23.1856 118.889 22.5863C118.065 22.2594 117.214 21.8361 116.314 21.3019L116.271 21.2749L116.179 21.235C115.681 21.0498 115.235 20.9719 114.852 21.0044L114.193 21.1461C113.231 21.5061 111.894 23.9474 111.359 24.9797L111.148 25.3876L111.513 25.6759C111.577 25.7194 113.065 26.9027 114.329 27.643C115.819 28.468 117.489 29.0648 119.463 29.4641C120.259 29.6095 121.522 29.7935 123.502 29.7935C129.993 29.7935 134.709 26.5052 135.251 21.6079C135.486 17.1664 132.76 14.2682 126.675 12.4532Z" fill="#B5B5B5"/>
<path d="M138.053 1.28582C137.679 1.63054 137.482 2.08997 137.482 2.60827L137.477 7.19881C137.477 7.19881 145.309 7.19207 146.334 7.19207C146.334 8.27223 146.334 29.4983 146.334 29.4983L153.589 29.4921C153.589 29.4921 153.589 8.26916 153.589 7.19207C154.556 7.19084 159.289 7.19084 159.289 7.19084C159.557 7.19084 160.971 7.16017 161.788 6.41123C162.158 6.05915 162.359 5.60954 162.359 5.08387V0.508053H140.552C140.283 0.504986 138.867 0.533201 138.053 1.28582Z" fill="#B5B5B5"/>
<path d="M16.107 22.9306C16.107 22.9306 10.0155 22.9306 7.96255 22.9306C7.96255 21.8609 7.93986 3.154 7.93986 3.154C7.93986 2.33269 7.69512 1.68066 7.20012 1.22492C6.41131 0.484566 5.23669 0.488249 4.79812 0.496836L0.518555 0.487636L0.529596 29.4852H18.6851L18.6992 24.8769C18.6992 24.2874 18.4465 22.9306 16.107 22.9306Z" fill="#B5B5B5"/>
<path d="M75.2361 23.3379V23.3336L74.6595 23.0803C74.0835 22.9232 73.4064 22.9742 72.6452 23.2287C71.2559 23.6023 69.7752 23.7237 67.997 23.6066C63.4463 23.1606 60.7131 20.0643 60.507 15.1131C60.7124 10.2109 63.4463 7.11458 68.0184 6.67295C69.7782 6.55579 71.2589 6.67295 72.6562 7.05508C73.4064 7.30534 74.0835 7.35502 74.6571 7.19309C74.6589 7.19187 75.2361 6.9367 75.2361 6.9367C76.0482 6.43618 76.6297 3.88635 76.9045 2.41792L76.9671 2.0732L76.672 1.86036C76.5972 1.80638 76.3666 1.64506 73.737 0.935376C71.3423 0.290099 69.2115 0.21036 68.1607 0.217721L68.0448 0.218947C62.0361 0.218947 52.9875 4.18568 52.7281 15.1063V15.1689C52.9875 26.0938 62.0361 30.0587 68.0491 30.0587L68.1607 30.063C69.2115 30.0673 71.3387 29.9808 73.737 29.3368C76.3672 28.6332 76.5972 28.4701 76.6745 28.4149L76.9683 28.2069L76.9057 27.861C76.6303 26.3846 76.0488 23.8421 75.2361 23.3379Z" fill="#B5B5B5"/>
<path d="M186.858 22.9229L174.072 22.9285C174.072 22.9285 174.094 18.7581 174.094 18.0674C175.143 18.0674 184.648 18.0674 184.648 18.0674L184.63 11.3582C184.63 11.3582 175.157 11.3693 174.113 11.3693C174.11 10.5762 174.113 7.99753 174.113 7.19891C175.158 7.19891 183.801 7.18725 183.801 7.18725C184.067 7.19154 185.514 7.19277 186.297 6.41132C186.845 5.86234 186.869 4.86437 186.869 4.34422V0.513659H166.757L166.761 29.4972L183.855 29.4739C184.976 29.4493 186.88 28.7893 186.88 26.5609L186.858 22.9229Z" fill="#B5B5B5"/>
</svg>
