<svg width="165" height="29" viewBox="0 0 165 29" fill="none" xmlns="http://www.w3.org/2000/svg">
<path opacity="0.5" d="M60.41 24.3856C59.2701 24.7648 58.5179 24.8571 57.622 24.8571C55.77 24.8571 54.7437 24.135 54.7437 22.2622C54.7437 20.3103 56.0475 19.6574 58.6082 19.6574C59.2334 19.6574 59.8484 19.7465 60.1359 19.8454V21.2434C60.1359 22.7502 60.2195 23.7393 60.41 24.3856ZM66.9923 26.6211C65.6251 24.5735 65.2674 23.3667 65.2674 20.7851V15.5426C65.2674 12.7202 64.9331 11.7014 64.1776 10.6726C63.1245 9.21529 61.3695 8.58224 58.1435 8.58224C55.8603 8.58224 53.6439 8.82623 51.4977 9.36696L52.2733 13.0928C53.7241 12.8916 55.2452 12.7202 56.3183 12.7202C59.7448 12.7202 60.1359 13.2082 60.1359 15.7437V16.69C59.3737 16.4889 58.5179 16.3438 57.5251 16.3438C52.3669 16.3438 49.6424 18.8331 49.6424 22.9546C49.6424 26.8189 52.5541 28.9258 56.101 28.9258C57.4248 28.9258 58.8088 28.6851 59.9053 28.2433C60.5672 27.9597 60.8547 27.7916 61.7105 27.2442C62.2253 27.9828 63.2583 28.7378 63.6795 28.8796L66.9923 26.6211ZM118.016 24.3856C116.869 24.7648 116.13 24.8571 115.228 24.8571C113.369 24.8571 112.33 24.135 112.33 22.2622C112.33 20.3103 113.65 19.6574 116.217 19.6574C116.843 19.6574 117.461 19.7465 117.742 19.8454V21.2434C117.742 22.7502 117.822 23.7393 118.016 24.3856ZM124.605 26.6211C123.228 24.5735 122.877 23.3667 122.877 20.7851V15.5426C122.877 12.7202 122.536 11.7014 121.773 10.6726C120.734 9.21529 118.975 8.58224 115.739 8.58224C113.459 8.58224 111.23 8.82623 109.084 9.36696L109.849 13.0928C111.303 12.8916 112.828 12.7202 113.931 12.7202C117.337 12.7202 117.742 13.2082 117.742 15.7437V16.69C116.98 16.4889 116.131 16.3438 115.118 16.3438C109.953 16.3438 107.218 18.8331 107.218 22.9546C107.218 26.8189 110.137 28.9258 113.7 28.9258C115.041 28.9258 116.411 28.6851 117.498 28.2433C118.17 27.9597 118.447 27.7916 119.303 27.2442C119.824 27.9828 120.857 28.7378 121.282 28.8796L124.605 26.6211ZM164.767 28.4873C164.767 28.4873 161.939 22.5425 161.247 21.1906C160.468 19.6673 159.746 18.6155 158.155 18.2364V18.1506C159.221 17.9495 160.07 17.3131 161 15.3678C161.879 13.4719 162.14 13.0631 162.658 12.6114C163.166 12.163 163.861 12.3245 163.861 12.3245L164.122 8.81963C163.383 8.72072 162.564 8.71742 161.718 8.76358C160.314 8.84601 159.589 9.24497 158.897 9.93078C158.355 10.455 157.988 11.2398 157.533 12.1399C157.052 13.1224 156.671 13.9138 156.169 14.9128C155.671 15.9382 155.437 16.3998 154.096 16.3998H153.224V0.873451H148.059V28.4873H153.224V20.5477L153.929 20.5345C155.41 20.5345 155.671 20.9005 156.453 22.4402C157.369 24.2768 159.124 28.4873 159.124 28.4873H164.767ZM19.2683 28.4873H25.2288L16.2128 1.33506C15.2634 1.02182 14.09 0.827293 12.8364 0.827293C11.4692 0.827293 10.9811 1.00534 9.91133 1.33506L0.370529 28.4873H6.09034C6.09034 28.4873 6.86255 26.1067 7.77184 23.1557H17.6536C18.5362 26.1034 19.2683 28.4873 19.2683 28.4873ZM9.22268 18.6023C9.22268 18.6023 10.8741 13.1521 11.1315 12.3047C11.7867 10.1088 12.7829 6.62042 12.7829 6.62042H12.9467C12.9467 6.62042 13.8694 10.2341 14.4711 12.2652C14.6985 13.073 16.2763 18.6023 16.2763 18.6023H9.22268ZM75.791 15.4964C73.9691 15.4964 72.4882 16.9636 72.4882 18.7606C72.4882 20.5707 73.9691 22.0281 75.791 22.0281C77.6163 22.0281 79.0905 20.5707 79.0905 18.7606C79.0905 16.9636 77.6163 15.4964 75.791 15.4964ZM32.3058 0.873451H27.1276V28.484H32.3058V0.873451ZM135.185 12.9708C138.047 13.0301 138.401 13.6137 138.401 15.9811V28.4873H143.533V15.5426C143.533 12.7202 143.198 11.7014 142.436 10.6726C141.383 9.21529 139.314 8.58224 135.814 8.58224C132.351 8.58224 130.144 8.94493 127.306 9.77911V28.4873H132.491V13.2082C133.852 13.0136 134.092 12.9708 135.185 12.9708ZM45.1127 0.382177C41.8767 0.382177 40.115 1.01524 39.0786 2.46929C38.3164 3.5013 37.9788 4.5432 37.9788 7.37217V9.77911H35.4081V13.9072H37.9788V28.4873H43.1136L43.1002 13.9072H48.2183V9.77911H43.1002L43.1136 7.56671C43.1136 5.03448 43.5047 4.5432 46.9346 4.5432C47.3057 4.5432 47.7235 4.56299 48.1682 4.59596L48.9771 0.629461C47.7102 0.464603 46.4131 0.382177 45.1127 0.382177ZM86.3113 0.639357C88.073 0.537144 92.011 0.392065 94.4815 0.392065C94.9328 0.392065 95.4008 0.395363 95.8688 0.418442C100.726 0.418442 103.511 3.90685 103.511 8.00194C103.511 10.788 102.217 12.6378 99.185 13.739C102.752 14.5171 104.621 17.2637 104.621 20.6235C104.621 23.0898 103.915 25.0483 102.622 26.3837C100.943 28.0125 98.4028 28.9258 95.0197 28.9258C92.0111 28.9258 88.2335 28.8335 86.3113 28.7214V0.639357ZM94.4815 5.16307C93.6257 5.16307 92.566 5.17956 91.5163 5.21583V11.8464H94.4848C95.6616 11.8464 96.6076 11.5233 97.2528 10.9001C97.8679 10.3133 98.1888 9.48236 98.1888 8.49651C98.1888 6.37643 97.0255 5.17626 94.8626 5.16307H94.4815ZM94.5885 24.1647H94.8124C97.5102 24.1647 99.1616 22.7502 99.1817 19.9014C99.1549 18.8793 98.7571 17.9363 98.0451 17.2538C97.2662 16.4823 96.163 16.08 94.8693 16.08H91.5163V24.135C92.4623 24.1548 93.5053 24.1581 94.5885 24.1647Z" fill="white"/>
</svg>
