<svg style="display: none;" xmlns="http://www.w3.org/2000/svg" xmlns:xlink="http://www.w3.org/1999/xlink">
    <symbol id="logo" viewBox="0 0 106 49">
        <g>
            <path class="logo-line" d="M63 47C47.7696 47 24 47 24 47V34.5M63 18.7143V2H24V24.5"/>
            <path class="logo-text" d="M4.9868 35.1105C4.17671 35.1105 3.45078 34.979 2.80902 34.7159C2.16726 34.4529 1.65175 34.0637 1.26248 33.5481C0.883737 33.0326 0.683844 32.4119 0.662803 31.686H3.53495C3.57703 32.0963 3.71906 32.4119 3.96104 32.6328C4.20301 32.8433 4.51863 32.9485 4.9079 32.9485C5.30768 32.9485 5.6233 32.859 5.85476 32.6802C6.08621 32.4908 6.20194 32.2331 6.20194 31.9069C6.20194 31.6334 6.10726 31.4072 5.91788 31.2283C5.73903 31.0495 5.51284 30.9022 5.2393 30.7865C4.97628 30.6707 4.59754 30.5392 4.10307 30.3919C3.38766 30.171 2.80376 29.9501 2.35137 29.7291C1.89898 29.5082 1.50972 29.1821 1.18358 28.7507C0.857436 28.3194 0.694365 27.7565 0.694365 27.0621C0.694365 26.0311 1.06785 25.2263 1.81482 24.6476C2.56179 24.0585 3.53495 23.7639 4.73431 23.7639C5.95471 23.7639 6.93839 24.0585 7.68536 24.6476C8.43233 25.2263 8.83211 26.0364 8.88472 27.0779H5.96523C5.94419 26.7202 5.81268 26.4414 5.5707 26.2415C5.32873 26.0311 5.01837 25.9259 4.63962 25.9259C4.31348 25.9259 4.05046 26.0153 3.85057 26.1942C3.65068 26.3625 3.55073 26.6098 3.55073 26.9359C3.55073 27.2936 3.71906 27.5724 4.05572 27.7723C4.39238 27.9722 4.91842 28.1879 5.63383 28.4193C6.34923 28.6613 6.92787 28.8927 7.36974 29.1137C7.82213 29.3346 8.21139 29.6555 8.53753 30.0763C8.86367 30.4971 9.02675 31.039 9.02675 31.7018C9.02675 32.333 8.86367 32.9064 8.53753 33.4219C8.22191 33.9374 7.759 34.3477 7.1488 34.6528C6.5386 34.9579 5.81794 35.1105 4.9868 35.1105ZM20.3928 23.9217V26.0837H17.4575V35H14.759V26.0837H11.8237V23.9217H20.3928ZM26.1816 23.9217V35H23.483V23.9217H26.1816ZM36.296 35L32.5717 30.1079V35H29.8731V23.9217H32.5717V28.7823L36.2644 23.9217H39.4364L35.144 29.3504L39.5942 35H36.296ZM45.3111 32.9169H48.8461V35H42.6126V23.9217H45.3111V32.9169ZM58.7654 33.0432H54.6308L53.968 35H51.1432L55.1516 23.9217H58.2762L62.2846 35H59.4282L58.7654 33.0432ZM58.0711 30.9601L56.6981 26.9043L55.341 30.9601H58.0711ZM69.2489 35.1105C68.4388 35.1105 67.7128 34.979 67.0711 34.7159C66.4293 34.4529 65.9138 34.0637 65.5245 33.5481C65.1458 33.0326 64.9459 32.4119 64.9248 31.686H67.797C67.8391 32.0963 67.9811 32.4119 68.2231 32.6328C68.4651 32.8433 68.7807 32.9485 69.1699 32.9485C69.5697 32.9485 69.8854 32.859 70.1168 32.6802C70.3483 32.4908 70.464 32.2331 70.464 31.9069C70.464 31.6334 70.3693 31.4072 70.1799 31.2283C70.0011 31.0495 69.7749 30.9022 69.5013 30.7865C69.2383 30.6707 68.8596 30.5392 68.3651 30.3919C67.6497 30.171 67.0658 29.9501 66.6134 29.7291C66.161 29.5082 65.7718 29.1821 65.4456 28.7507C65.1195 28.3194 64.9564 27.7565 64.9564 27.0621C64.9564 26.0311 65.3299 25.2263 66.0769 24.6476C66.8238 24.0585 67.797 23.7639 68.9964 23.7639C70.2168 23.7639 71.2004 24.0585 71.9474 24.6476C72.6944 25.2263 73.0942 26.0364 73.1468 27.0779H70.2273C70.2062 26.7202 70.0747 26.4414 69.8327 26.2415C69.5908 26.0311 69.2804 25.9259 68.9017 25.9259C68.5755 25.9259 68.3125 26.0153 68.1126 26.1942C67.9127 26.3625 67.8128 26.6098 67.8128 26.9359C67.8128 27.2936 67.9811 27.5724 68.3178 27.7723C68.6544 27.9722 69.1805 28.1879 69.8959 28.4193C70.6113 28.6613 71.1899 28.8927 71.6318 29.1137C72.0842 29.3346 72.4734 29.6555 72.7996 30.0763C73.1257 30.4971 73.2888 31.039 73.2888 31.7018C73.2888 32.333 73.1257 32.9064 72.7996 33.4219C72.484 33.9374 72.021 34.3477 71.4108 34.6528C70.8007 34.9579 70.08 35.1105 69.2489 35.1105Z"/>
        </g>
    </symbol>
    <symbol id="btn-next" viewBox="0 0 50 17">
        <g>
            <path d="M48 8.5L41.1556 1M48 8.5L41.1556 16M48 8.5H1.5" stroke-width="2" stroke-linecap="round"/>
        </g>
    </symbol>
    <symbol id="phone" viewBox="0 0 22 22">
        <g>
            <path d="M20.4715 15.9083L17.5348 13.0022C16.4859 11.9643 14.7029 12.3795 14.2833 13.7287C13.9687 14.6629 12.9198 15.1818 11.9759 14.9742C9.87816 14.4553 7.04626 11.7567 6.52184 9.57704C6.20718 8.64288 6.83649 7.60496 7.78046 7.29362C9.14396 6.87846 9.5635 5.114 8.51465 4.07608L5.57788 1.16991C4.7388 0.443364 3.48018 0.443364 2.74598 1.16991L0.753167 3.14195C-1.23965 5.21779 0.962937 10.7188 5.89253 15.597C10.8221 20.4752 16.381 22.7586 18.4787 20.6828L20.4715 18.7107C21.2058 17.8804 21.2058 16.6349 20.4715 15.9083Z"/>
        </g>
    </symbol>
    <symbol id="email" viewBox="0 0 28 22">
        <g>
            <path d="M14.8099 14.787C14.5455 14.9552 14.2479 15.0226 13.9835 15.0226C13.719 15.0226 13.4215 14.9552 13.157 14.787L0 6.60907V17.4793C0 19.8014 1.85124 21.686 4.13223 21.686H23.8678C26.1488 21.686 28 19.8014 28 17.4793V6.60907L14.8099 14.787Z"/>
            <path d="M23.8676 0.686035H4.13208C2.18167 0.686035 0.528774 2.0995 0.13208 3.98412L14.0164 12.5995L27.8676 3.98412C27.4709 2.0995 25.818 0.686035 23.8676 0.686035Z"/>
        </g>
    </symbol>
    <symbol id="instagram" viewBox="0 0 29 29">
        <g>
            <path clip-rule="evenodd" d="M0.833313 10.7332C0.833313 6.60855 0.833313 4.54619 1.88372 3.10043C2.22296 2.63351 2.63357 2.2229 3.10049 1.88366C4.54625 0.833252 6.60861 0.833252 10.7333 0.833252H18.9333C23.058 0.833252 25.1204 0.833252 26.5661 1.88366C27.0331 2.2229 27.4437 2.63351 27.7829 3.10043C28.8333 4.54619 28.8333 6.60855 28.8333 10.7333V18.9332C28.8333 23.058 28.8333 25.1203 27.7829 26.5661C27.4437 27.033 27.0331 27.4436 26.5661 27.7828C25.1204 28.8332 23.058 28.8332 18.9333 28.8332H10.7333C6.60861 28.8332 4.54625 28.8332 3.10049 27.7828C2.63357 27.4436 2.22296 27.033 1.88372 26.5661C0.833313 25.1203 0.833313 23.058 0.833313 18.9332V10.7332ZM14.8334 7.42133C10.7402 7.42133 7.42163 10.7399 7.42163 14.8331C7.42163 18.9262 10.7402 22.2449 14.8334 22.2449C18.9265 22.2449 22.2452 18.9262 22.2452 14.8331C22.2452 10.7399 18.9265 7.42133 14.8334 7.42133ZM14.8334 19.4654C12.28 19.4654 10.201 17.3864 10.201 14.8331C10.201 12.2779 12.28 10.2007 14.8334 10.2007C17.3867 10.2007 19.4657 12.2779 19.4657 14.8331C19.4657 17.3864 17.3867 19.4654 14.8334 19.4654ZM23.7885 6.86555C23.7885 7.411 23.3463 7.85317 22.8009 7.85317C22.2555 7.85317 21.8133 7.411 21.8133 6.86555C21.8133 6.3201 22.2555 5.87793 22.8009 5.87793C23.3463 5.87793 23.7885 6.3201 23.7885 6.86555Z"/>
        </g>
    </symbol>
    <symbol id="facebook" viewBox="0 0 19 35">
        <g>
            <path d="M17.7591 0.340326L13.3329 0.333252C8.3601 0.333252 5.14649 3.61748 5.14649 8.7007V12.5587H0.696079C0.311511 12.5587 9.15527e-05 12.8692 9.15527e-05 13.2523V18.842C9.15527e-05 19.2251 0.311866 19.5353 0.696079 19.5353H5.14649V33.64C5.14649 34.023 5.45791 34.3333 5.84248 34.3333H11.649C12.0336 34.3333 12.345 34.0227 12.345 33.64V19.5353H17.5486C17.9331 19.5353 18.2445 19.2251 18.2445 18.842L18.2467 13.2523C18.2467 13.0684 18.1732 12.8922 18.0428 12.762C17.9125 12.6319 17.735 12.5587 17.5503 12.5587H12.345V9.28822C12.345 7.71631 12.721 6.91834 14.7767 6.91834L17.7584 6.91727C18.1426 6.91727 18.454 6.60671 18.454 6.224V1.0336C18.454 0.65124 18.143 0.341034 17.7591 0.340326Z"/>
        </g>
    </symbol>
    <symbol id="youtube" viewBox="0 0 33 23">
        <g>
            <path d="M31.0567 2.41004C30.1887 0.866039 29.2467 0.582039 27.3287 0.474039C25.4127 0.344039 20.5947 0.290039 16.4207 0.290039C12.2387 0.290039 7.41867 0.344039 5.50467 0.472039C3.59067 0.582039 2.64667 0.864039 1.77067 2.41004C0.876672 3.95204 0.416672 6.60804 0.416672 11.284C0.416672 11.288 0.416672 11.29 0.416672 11.29C0.416672 11.294 0.416672 11.296 0.416672 11.296V11.3C0.416672 15.956 0.876672 18.632 1.77067 20.158C2.64667 21.702 3.58867 21.982 5.50267 22.112C7.41867 22.224 12.2387 22.29 16.4207 22.29C20.5947 22.29 25.4127 22.224 27.3307 22.114C29.2487 21.984 30.1907 21.704 31.0587 20.16C31.9607 18.634 32.4167 15.958 32.4167 11.302C32.4167 11.302 32.4167 11.296 32.4167 11.292C32.4167 11.292 32.4167 11.288 32.4167 11.286C32.4167 6.60804 31.9607 3.95204 31.0567 2.41004ZM12.4167 17.29V5.29004L22.4167 11.29L12.4167 17.29Z"/>
        </g>
    </symbol>
    <symbol id="grid-arrow" viewBox="0 0 173 9">
        <g>
            <path d="M172.354 4.85355C172.549 4.65829 172.549 4.34171 172.354 4.14645L169.172 0.964466C168.976 0.769204 168.66 0.769204 168.464 0.964466C168.269 1.15973 168.269 1.47631 168.464 1.67157L171.293 4.5L168.464 7.32843C168.269 7.52369 168.269 7.84027 168.464 8.03553C168.66 8.2308 168.976 8.2308 169.172 8.03553L172.354 4.85355ZM1 4C0.723858 4 0.5 4.22386 0.5 4.5C0.5 4.77614 0.723858 5 1 5V4ZM172 4H1V5H172V4Z" fill="#E6E6E6"/>
        </g>
    </symbol>
    <symbol id="zoom" viewBox="0 0 28 28">
        <g>
            <path d="M11.6667 19.8333C16.177 19.8333 19.8333 16.1769 19.8333 11.6666C19.8333 7.15633 16.177 3.5 11.6667 3.5C7.15634 3.5 3.5 7.15633 3.5 11.6666C3.5 16.1769 7.15634 19.8333 11.6667 19.8333Z" stroke="#E4E4E4" stroke-width="1.75" stroke-linecap="round" stroke-linejoin="round"/>
            <path d="M24.5 24.5001L17.5 17.5" stroke="#E4E4E4" stroke-width="1.75" stroke-linecap="round" stroke-linejoin="round"/>
        </g>
    </symbol>
    <symbol id="arrow-more-2" viewBox="0 0 28 28">
        <g>
            <path d="M172.354 4.85355C172.549 4.65829 172.549 4.34171 172.354 4.14645L169.172 0.964466C168.976 0.769204 168.66 0.769204 168.464 0.964466C168.269 1.15973 168.269 1.47631 168.464 1.67157L171.293 4.5L168.464 7.32843C168.269 7.52369 168.269 7.84027 168.464 8.03553C168.66 8.2308 168.976 8.2308 169.172 8.03553L172.354 4.85355ZM1 4C0.723858 4 0.5 4.22386 0.5 4.5C0.5 4.77614 0.723858 5 1 5V4ZM172 4H1V5H172V4Z" fill="#E6E6E6"/>
        </g>
    </symbol>
    <symbol id="arrow-next" viewBox="0 0 98 16">
        <g>
            <path d="M1 7.5H0.5V8.5H1V7.5ZM97.3536 8.35355C97.5488 8.15829 97.5488 7.84171 97.3536 7.64645L94.1716 4.46447C93.9763 4.2692 93.6597 4.2692 93.4645 4.46447C93.2692 4.65973 93.2692 4.97631 93.4645 5.17157L96.2929 8L93.4645 10.8284C93.2692 11.0237 93.2692 11.3403 93.4645 11.5355C93.6597 11.7308 93.9763 11.7308 94.1716 11.5355L97.3536 8.35355ZM3.66667 8.5H4.16667V7.5H3.66667V8.5ZM14.3333 7.5H13.8333V8.5H14.3333V7.5ZM19.6667 8.5H20.1667V7.5H19.6667V8.5ZM30.3333 7.5H29.8333V8.5H30.3333V7.5ZM35.6667 8.5H36.1667V7.5H35.6667V8.5ZM46.3333 7.5H45.8333V8.5H46.3333V7.5ZM51.6667 8.5H52.1667V7.5H51.6667V8.5ZM62.3333 7.5H61.8333V8.5H62.3333V7.5ZM67.6667 8.5H68.1667V7.5H67.6667V8.5ZM78.3333 7.5H77.8333V8.5H78.3333V7.5ZM83.6667 8.5H84.1667V7.5H83.6667V8.5ZM94.3333 7.5H93.8333V8.5H94.3333V7.5ZM1 8.5H3.66667V7.5H1V8.5ZM14.3333 8.5H19.6667V7.5H14.3333V8.5ZM30.3333 8.5H35.6667V7.5H30.3333V8.5ZM46.3333 8.5H51.6667V7.5H46.3333V8.5ZM62.3333 8.5H67.6667V7.5H62.3333V8.5ZM78.3333 8.5H83.6667V7.5H78.3333V8.5ZM94.3333 8.5H97V7.5H94.3333V8.5ZM1 7H0V9H1V7ZM97.7071 8.70711C98.0976 8.31658 98.0976 7.68342 97.7071 7.29289L91.3431 0.928932C90.9526 0.538408 90.3195 0.538408 89.9289 0.928932C89.5384 1.31946 89.5384 1.95262 89.9289 2.34315L95.5858 8L89.9289 13.6569C89.5384 14.0474 89.5384 14.6805 89.9289 15.0711C90.3195 15.4616 90.9526 15.4616 91.3431 15.0711L97.7071 8.70711ZM3.66667 9H4.66667V7H3.66667V9ZM14.3333 7H13.3333V9H14.3333V7ZM19.6667 9H20.6667V7H19.6667V9ZM30.3333 7H29.3333V9H30.3333V7ZM35.6667 9H36.6667V7H35.6667V9ZM46.3333 7H45.3333V9H46.3333V7ZM51.6667 9H52.6667V7H51.6667V9ZM62.3333 7H61.3333V9H62.3333V7ZM67.6667 9H68.6667V7H67.6667V9ZM78.3333 7H77.3333V9H78.3333V7ZM83.6667 9H84.6667V7H83.6667V9ZM94.3333 7H93.3333V9H94.3333V7ZM1 9H3.66667V7H1V9ZM14.3333 9H19.6667V7H14.3333V9ZM30.3333 9H35.6667V7H30.3333V9ZM46.3333 9H51.6667V7H46.3333V9ZM62.3333 9H67.6667V7H62.3333V9ZM78.3333 9H83.6667V7H78.3333V9ZM94.3333 9H97V7H94.3333V9Z" fill="black"/>
        </g>
    </symbol>
    <symbol id="arrow-minus" viewBox="0 0 10 16">
        <g>
            <path d="M9 1.63135L2 8.13135L9 14.6313" stroke-width="2"/>
        </g>
    </symbol>
    <symbol id="arrow-plus" viewBox="0 0 10 16">
        <g>
            <path d="M1 1.63135L8 8.13135L1 14.6313" stroke-width="2"/>
        </g>
    </symbol>
    <symbol id="price-char" viewBox="0 0 25 11">
        <g>
            <path d="M2 5.4599C2 5.4599 9.20896 -0.904339 12.9851 5.4599C15.884 10.3457 20.3079 5.4599 25 5.4599" stroke="#05070A" stroke-width="5"/>
        </g>
    </symbol>
    <symbol id="quote" viewBox="0 0 126 102">
        <g>
            <path d="M36.8216 0L59.2531 15.2365C46.1328 33.1535 39.361 52.4813 38.9378 73.2199V102H0V77.4523C0 63.0622 3.38589 48.8133 10.1577 34.7054C17.0705 20.5975 25.9585 9.02905 36.8216 0ZM103.481 0L125.913 15.2365C112.793 33.1535 106.021 52.4813 105.598 73.2199V102H66.6598V77.4523C66.6598 63.0622 70.0456 48.8133 76.8174 34.7054C83.7303 20.5975 92.6183 9.02905 103.481 0Z" fill="#F9F9F9"/>
        </g>
    </symbol>
    <symbol id="arrow-more" viewBox="0 0 55 12">
        <g>
            <path d="M54.5303 6.53033C54.8232 6.23744 54.8232 5.76256 54.5303 5.46967L49.7574 0.696699C49.4645 0.403806 48.9896 0.403806 48.6967 0.696699C48.4038 0.989593 48.4038 1.46447 48.6967 1.75736L52.9393 6L48.6967 10.2426C48.4038 10.5355 48.4038 11.0104 48.6967 11.3033C48.9896 11.5962 49.4645 11.5962 49.7574 11.3033L54.5303 6.53033ZM0 6.75H54V5.25H0V6.75Z"/>
        </g>
    </symbol>
    <symbol id="prev" viewBox="0 0 15 25">
        <g>
            <path d="M14 1L2 12.5L14 24" stroke-width="1.5"/>
        </g>
    </symbol>
    <symbol id="next" viewBox="0 0 15 25">
        <g>
            <path d="M1 1L13 12.5L1 24" stroke-width="1.5"/>
        </g>
    </symbol>
    <symbol id="hamburger" viewBox="0 0 26 19">
        <g>
            <path d="M1 1H25M1 9.5H25M1 18H25" stroke-width="2" stroke-linecap="round"/>
        </g>
    </symbol>
    <symbol id="close" viewBox="0 0 46 46">
        <g>
            <path d="M1 1L47 47M47 1L1 47" stroke-width="2"/>
        </g>
    </symbol>
    <symbol id="nav-close" viewBox="0 0 19 19">
        <g>
            <path d="M1 1L17.9706 17.9706M1 17.9707L17.9706 1.00014" stroke-width="2" stroke-linecap="round"/>
        </g>
    </symbol>
    <symbol id="up-btn" viewBox="0 0 27 14">
        <g>
            <path d="M1 13L13.5 1L26 13" stroke-width="2" stroke-linecap="round" stroke-linejoin="round"/>
        </g>
    </symbol>
</svg>